<?xml version="1.0" encoding="UTF-8"?>
<!DOCTYPE svg PUBLIC "-//W3C//DTD SVG 1.1//EN" "http://www.w3.org/Graphics/SVG/1.1/DTD/svg11.dtd">
<svg xmlns="http://www.w3.org/2000/svg" version="1.1" width="512px" height="512px" style="shape-rendering:geometricPrecision; text-rendering:geometricPrecision; image-rendering:optimizeQuality; fill-rule:evenodd; clip-rule:evenodd" xmlns:xlink="http://www.w3.org/1999/xlink">
<g><path style="opacity:0.996" fill="#d34521" d="M 297.5,-0.5 C 299.833,-0.5 302.167,-0.5 304.5,-0.5C 304.5,19.5 304.5,39.5 304.5,59.5C 366.168,59.3333 427.834,59.5 489.5,60C 500.28,61.6241 507.614,67.4575 511.5,77.5C 511.5,196.167 511.5,314.833 511.5,433.5C 507.614,443.543 500.28,449.376 489.5,451C 427.834,451.5 366.168,451.667 304.5,451.5C 304.5,471.5 304.5,491.5 304.5,511.5C 302.5,511.5 300.5,511.5 298.5,511.5C 198.95,493.725 99.2829,476.059 -0.5,458.5C -0.5,323.167 -0.5,187.833 -0.5,52.5C 98.9634,35.0349 198.297,17.3682 297.5,-0.5 Z"/></g>
<g><path style="opacity:1" fill="#fefefe" d="M 304.5,85.5 C 365.167,85.5 425.833,85.5 486.5,85.5C 486.5,198.833 486.5,312.167 486.5,425.5C 425.833,425.5 365.167,425.5 304.5,425.5C 304.5,409.5 304.5,393.5 304.5,377.5C 349.167,377.5 393.833,377.5 438.5,377.5C 438.5,369.167 438.5,360.833 438.5,352.5C 393.833,352.5 349.167,352.5 304.5,352.5C 304.5,344.5 304.5,336.5 304.5,328.5C 349.167,328.5 393.833,328.5 438.5,328.5C 438.5,320.5 438.5,312.5 438.5,304.5C 393.833,304.5 349.167,304.5 304.5,304.5C 304.171,290.323 304.504,276.323 305.5,262.5C 328.523,280.695 353.857,284.528 381.5,274C 407.606,261.721 422.273,241.221 425.5,212.5C 426.461,210.735 426.795,208.735 426.5,206.5C 402.167,206.5 377.833,206.5 353.5,206.5C 353.5,182.167 353.5,157.833 353.5,133.5C 350.287,133.19 347.287,133.523 344.5,134.5C 329.415,135.803 316.249,141.47 305,151.5C 304.5,129.503 304.333,107.503 304.5,85.5 Z"/></g>
<g><path style="opacity:1" fill="#eebeb2" d="M 304.5,85.5 C 365.331,84.5009 426.331,84.1676 487.5,84.5C 487.5,198.5 487.5,312.5 487.5,426.5C 426.331,426.832 365.331,426.499 304.5,425.5C 365.167,425.5 425.833,425.5 486.5,425.5C 486.5,312.167 486.5,198.833 486.5,85.5C 425.833,85.5 365.167,85.5 304.5,85.5 Z"/></g>
<g><path style="opacity:1" fill="#d34521" d="M 365.5,121.5 C 403.471,124.324 427.304,143.99 437,180.5C 437.435,185.184 437.935,189.851 438.5,194.5C 414.167,194.5 389.833,194.5 365.5,194.5C 365.5,170.167 365.5,145.833 365.5,121.5 Z"/></g>
<g><path style="opacity:1" fill="#e79c8a" d="M 344.5,134.5 C 347.287,133.523 350.287,133.19 353.5,133.5C 353.5,157.833 353.5,182.167 353.5,206.5C 352.502,182.672 352.169,158.672 352.5,134.5C 349.833,134.5 347.167,134.5 344.5,134.5 Z"/></g>
<g><path style="opacity:1" fill="#fefdfd" d="M 85.5,356.5 C 85.5,287.5 85.5,218.5 85.5,149.5C 88.0593,149.802 90.3926,149.468 92.5,148.5C 111.532,147.98 130.532,146.98 149.5,145.5C 194.099,144.436 217.432,166.103 219.5,210.5C 217.782,254.426 195.116,279.259 151.5,285C 141.506,285.5 131.506,285.666 121.5,285.5C 121.5,309.833 121.5,334.167 121.5,358.5C 109.485,358.089 97.4847,357.422 85.5,356.5 Z"/></g>
<g><path style="opacity:1" fill="#eebdb1" d="M 92.5,148.5 C 90.3926,149.468 88.0593,149.802 85.5,149.5C 85.5,218.5 85.5,287.5 85.5,356.5C 84.5008,287.335 84.1675,218.002 84.5,148.5C 87.1667,148.5 89.8333,148.5 92.5,148.5 Z"/></g>
<g><path style="opacity:1" fill="#f4d4cc" d="M 121.5,183.5 C 121.5,205.167 121.5,226.833 121.5,248.5C 129.167,248.5 136.833,248.5 144.5,248.5C 136.684,249.492 128.684,249.826 120.5,249.5C 120.169,227.327 120.503,205.327 121.5,183.5 Z"/></g>
<g><path style="opacity:1" fill="#d34622" d="M 121.5,183.5 C 133.286,182.937 144.953,183.771 156.5,186C 163.881,189.715 168.715,195.549 171,203.5C 173.782,215.017 172.448,226.017 167,236.5C 161.069,243.547 153.569,247.547 144.5,248.5C 136.833,248.5 129.167,248.5 121.5,248.5C 121.5,226.833 121.5,205.167 121.5,183.5 Z"/></g>
<g><path style="opacity:1" fill="#de765b" d="M 353.5,206.5 C 377.833,206.5 402.167,206.5 426.5,206.5C 426.795,208.735 426.461,210.735 425.5,212.5C 425.5,210.833 425.5,209.167 425.5,207.5C 401.328,207.831 377.328,207.498 353.5,206.5 Z"/></g>
<g><path style="opacity:1" fill="#de745a" d="M 305.5,262.5 C 304.504,276.323 304.171,290.323 304.5,304.5C 303.174,290.328 303.174,275.994 304.5,261.5C 305.107,261.624 305.44,261.957 305.5,262.5 Z"/></g>
<g><path style="opacity:1" fill="#e18269" d="M 304.5,352.5 C 349.167,352.5 393.833,352.5 438.5,352.5C 438.5,360.833 438.5,369.167 438.5,377.5C 393.833,377.5 349.167,377.5 304.5,377.5C 348.664,376.501 392.997,376.168 437.5,376.5C 437.5,368.833 437.5,361.167 437.5,353.5C 392.997,353.832 348.664,353.499 304.5,352.5 Z"/></g>
</svg>
